<?xml version="1.0" standalone="no"?>
<!DOCTYPE svg PUBLIC "-//W3C//DTD SVG 20010904//EN"
 "http://www.w3.org/TR/2001/REC-SVG-20010904/DTD/svg10.dtd">
<svg version="1.0" xmlns="http://www.w3.org/2000/svg"
 width="598.000000pt" height="675.000000pt" viewBox="0 0 598.000000 675.000000"
 preserveAspectRatio="xMidYMid meet">

<g transform="translate(0.000000,675.000000) scale(0.100000,-0.100000)"
fill="#000000" stroke="none">
<path d="M864 5142 l-41 -3 14 -87 c123 -775 577 -1278 1282 -1422 97 -20 336
-45 367 -38 12 2 2 29 -48 128 -112 219 -241 402 -403 569 -162 168 -319 280
-540 388 -60 30 -101 51 -90 49 574 -148 902 -376 1209 -836 54 -82 56 -83 56
-50 0 57 -28 210 -55 305 -174 601 -771 972 -1605 997 -58 2 -123 2 -146 0z"/>
<path d="M5473 4747 c-260 -83 -473 -153 -473 -157 0 -3 52 -44 115 -89 63
-46 115 -87 115 -93 0 -26 -55 -169 -99 -257 -262 -522 -993 -1199 -1921
-1778 -542 -339 -1120 -616 -1527 -733 -236 -67 -288 -75 -533 -74 -201 0
-234 2 -305 22 -303 83 -464 288 -465 588 0 293 146 626 409 934 l56 65 -70
-54 c-306 -236 -535 -494 -655 -736 -87 -175 -104 -251 -103 -455 0 -145 3
-177 26 -262 75 -283 251 -464 524 -540 70 -20 102 -22 328 -22 259 0 360 9
595 55 963 188 2080 779 3055 1614 455 390 866 839 1120 1223 26 39 51 72 55
72 5 0 63 -57 131 -127 l122 -128 -6 349 c-4 192 -7 436 -7 543 0 106 -3 193
-7 192 -5 0 -221 -68 -480 -152z"/>
<path d="M4389 4525 c-442 -92 -734 -292 -1029 -706 -45 -63 -84 -116 -87
-119 -17 -17 20 238 66 460 17 80 31 153 31 163 0 14 -9 17 -48 17 -105 0
-281 41 -403 93 l-36 16 -6 -972 c-3 -534 -5 -972 -4 -973 1 -1 79 47 172 105
l170 108 5 289 5 289 39 63 c118 193 257 337 513 526 92 69 171 126 176 126 4
0 -46 -64 -111 -142 -147 -177 -240 -299 -308 -403 -55 -85 -114 -197 -114
-216 0 -8 22 -9 78 -4 510 45 849 367 1002 950 20 77 60 302 60 338 0 23 -27
22 -171 -8z"/>
<path d="M1920 2646 l0 -625 63 26 c130 52 399 182 565 272 l172 94 0 428 0
429 -400 0 -400 0 0 -624z"/>
<path d="M800 2631 c-6 -13 -10 -147 -10 -369 l0 -350 48 -20 c158 -67 425
-66 692 1 l125 32 3 363 2 362 -425 0 c-409 0 -425 -1 -435 -19z"/>
<path d="M2840 1320 c-214 -102 -519 -223 -742 -295 l-178 -58 0 -389 0 -388
28 -11 c56 -22 331 -89 442 -108 164 -29 334 -49 493 -57 l137 -7 0 697 c0
383 -3 696 -7 695 -5 0 -82 -36 -173 -79z"/>
<path d="M1510 874 c-126 -25 -332 -49 -508 -60 l-114 -6 34 -35 c104 -109
324 -271 505 -371 79 -44 218 -112 229 -112 2 0 4 137 4 305 0 284 -1 305 -17
304 -10 -1 -70 -12 -133 -25z"/>
</g>
</svg>
